<?xml version="1.0" encoding="utf-8"?>
<!-- Generator: Adobe Illustrator 23.0.0, SVG Export Plug-In . SVG Version: 6.00 Build 0)  -->
<svg version="1.1" id="Capa_1" xmlns="http://www.w3.org/2000/svg" xmlns:xlink="http://www.w3.org/1999/xlink" x="0px" y="0px"
	 viewBox="0 0 512 512" style="enable-background:new 0 0 512 512;" xml:space="preserve">
<style type="text/css">
	.st0{fill:#353535;}
	.st1{fill:#26AEFD;}
	.st2{fill:#FF9800;}
	.st3{font-family:'MyriadPro-Regular';}
	.st4{font-size:81.0934px;}
</style>
<g>
	<g>
		<path class="st0" d="M437.3,42.7H416c-5.9,0-10.7,4.8-10.7,10.7S410.1,64,416,64h21.3c29.4,0,53.3,23.9,53.3,53.3v320
			c0,29.4-23.9,53.3-53.3,53.3H74.7c-29.4,0-53.3-23.9-53.3-53.3v-320C21.3,87.9,45.2,64,74.7,64H96c5.9,0,10.7-4.8,10.7-10.7
			S101.9,42.7,96,42.7H74.7C33.5,42.7,0,76.2,0,117.3v320C0,478.5,33.5,512,74.7,512h362.7c41.2,0,74.7-33.5,74.7-74.7v-320
			C512,76.2,478.5,42.7,437.3,42.7z"/>
	</g>
</g>
<g>
	<g>
		<path class="st0" d="M330.7,42.7H181.3c-5.9,0-10.7,4.8-10.7,10.7S175.4,64,181.3,64h149.3c5.9,0,10.7-4.8,10.7-10.7
			S336.6,42.7,330.7,42.7z"/>
	</g>
</g>
<g>
	<g>
		<path class="st0" d="M501.3,149.3H10.7C4.8,149.3,0,154.1,0,160s4.8,10.7,10.7,10.7h490.7c5.9,0,10.7-4.8,10.7-10.7
			S507.2,149.3,501.3,149.3z"/>
	</g>
</g>
<g>
	<g>
		<path class="st1" d="M138.7,0C132.8,0,128,4.8,128,10.7V96c0,5.9,4.8,10.7,10.7,10.7s10.7-4.8,10.7-10.7V10.7
			C149.3,4.8,144.6,0,138.7,0z"/>
	</g>
</g>
<g>
	<g>
		<path class="st2" d="M373.3,0c-5.9,0-10.7,4.8-10.7,10.7V96c0,5.9,4.8,10.7,10.7,10.7S384,101.9,384,96V10.7
			C384,4.8,379.2,0,373.3,0z"/>
	</g>
</g>
<g>
	<g>
		<path d="M-187.7,629.7c13-9.7,21.4-25.3,21.4-42.7c0-29.4-23.9-53.3-53.3-53.3c-29.4,0-53.3,23.9-53.3,53.3
			c0,5.9,4.8,10.7,10.7,10.7s10.7-4.8,10.7-10.7c0-17.6,14.4-32,32-32s32,14.4,32,32s-14.4,32-32,32H-241c-5.9,0-10.7,4.8-10.7,10.7
			s4.8,10.7,10.7,10.7h21.3c17.6,0,32,14.4,32,32s-14.4,32-32,32s-32-14.4-32-32c0-5.9-4.8-10.7-10.7-10.7s-10.7,4.8-10.7,10.7
			c0,29.4,23.9,53.3,53.3,53.3c29.4,0,53.3-23.9,53.3-53.3C-166.3,654.9-174.7,639.4-187.7,629.7z"/>
	</g>
</g>
<g>
	<g>
		<path d="M-66.2,534.5c-4-1.6-8.6-0.8-11.6,2.3l-42.7,42.7c-4.2,4.2-4.2,10.9,0,15.1s10.9,4.2,15.1,0l24.4-24.4V715
			c0,5.9,4.8,10.7,10.7,10.7s10.7-4.8,10.7-10.7V544.3C-59.7,540-62.3,536.1-66.2,534.5z"/>
	</g>
</g>
<g>
	<g>
		<path d="M-27.7,704.3H-113c-5.9,0-10.7,4.8-10.7,10.7s4.8,10.7,10.7,10.7h85.3c5.9,0,10.7-4.8,10.7-10.7S-21.8,704.3-27.7,704.3z"
			/>
	</g>
</g>
<g>
	<path class="st1" d="M201.7,389c-3.9,0-7.2-1.4-9.8-4.1c-2.6-2.7-3.9-6.2-3.9-10.3V231.1l5,1.7l-60.5,77.8l-1.4-3.7H230
		c3.7,0,6.9,1.3,9.4,3.8c2.5,2.5,3.8,5.7,3.8,9.4c0,3.6-1.3,6.6-3.8,9c-2.5,2.4-5.7,3.7-9.4,3.7H111.7c-3.4,0-6.5-1.4-9.5-4.1
		c-3-2.7-4.5-6-4.5-9.7c0-3.6,1.2-6.8,3.6-9.6l89.1-112.2c1.3-1.9,3-3.3,5-4.2c2.1-0.9,4.2-1.4,6.4-1.4c4.1,0,7.5,1.4,10.1,4.1
		c2.6,2.7,3.9,6.2,3.9,10.3v168.7c0,4.1-1.4,7.6-4.2,10.3C209,387.7,205.6,389,201.7,389z"/>
	<path class="st1" d="M326.9,391c-7.3,0-14.8-1.1-22.6-3.4c-7.8-2.3-14.3-5.6-19.8-10.2c-2.1-1.7-3.6-3.9-4.8-6.5
		c-1.1-2.6-1.7-5.2-1.7-7.6c0-2.6,1.2-5.2,3.5-7.8c2.3-2.5,5.6-3.8,9.7-3.8c3,0,6.4,1.5,10.4,4.5c3.7,2.4,7.7,4.5,11.9,6.2
		s8.5,2.5,13,2.5c8.8,0,16.8-1.9,24-5.6c7.2-3.8,12.9-9,17.1-15.7c4.2-6.7,6.3-14,6.3-21.9c0-8.1-1.8-15-5.3-20.7
		c-3.6-5.7-8.4-10.2-14.4-13.4c-6.1-3.2-12.8-4.8-20.3-4.8c-6.2,0-11.6,1-16.4,3c-4.8,2-9,3.9-12.6,5.9c-3.6,2-7,3-9.9,3
		c-4.9,0-8.5-1.1-11.1-3.2c-2.5-2.2-4.1-4.8-4.8-7.9c-0.7-3.1-0.8-6-0.4-8.6l9.8-72.2c0.6-3.2,2.1-5.9,4.6-8
		c2.5-2.2,5.6-3.2,9.4-3.2h82.1c3.7,0,6.9,1.3,9.4,3.8c2.5,2.5,3.8,5.7,3.8,9.4c0,3.8-1.3,6.9-3.8,9.3c-2.5,2.4-5.7,3.7-9.4,3.7
		h-75.1l3.1-2.5l-9,62l-4.2-8.5c1.7-1.9,4.5-3.7,8.5-5.5c4-1.8,8.6-3.3,13.7-4.5c5.1-1.2,10.3-1.8,15.5-1.8
		c12.3,0,23.4,2.8,33.2,8.3c9.8,5.5,17.5,13.2,23.1,23c5.6,9.8,8.4,20.9,8.4,33.3c0,9.8-2,18.9-5.9,27.4
		c-3.9,8.5-9.3,15.8-16.2,22.1c-6.9,6.3-14.9,11.2-24,14.7C346.9,389.3,337.2,391,326.9,391z"/>
</g>
<text transform="matrix(1 0 0 1 79.7363 795.1191)" style="font-family:'Quicksand-SemiBold'; font-size:310.731px;">45</text>
<text transform="matrix(1.1402 0 0 1 167.1738 460.876)" class="st2 st3 st4">DAYS</text>
</svg>
