<?xml version="1.0" encoding="utf-8"?>
<!-- Generator: Adobe Illustrator 23.0.0, SVG Export Plug-In . SVG Version: 6.00 Build 0)  -->
<svg version="1.1" id="Layer_1" xmlns="http://www.w3.org/2000/svg" xmlns:xlink="http://www.w3.org/1999/xlink" x="0px" y="0px"
	 viewBox="0 0 300 123.6" style="enable-background:new 0 0 300 123.6;" xml:space="preserve">
<style type="text/css">
	.st0{fill:url(#SVGID_1_);}
	.st1{fill:url(#SVGID_2_);}
	.st2{fill:url(#SVGID_3_);}
	.st3{fill:url(#SVGID_4_);}
	.st4{fill:url(#SVGID_5_);}
	.st5{fill:url(#SVGID_6_);}
	.st6{fill:url(#SVGID_7_);}
	.st7{fill:url(#SVGID_8_);}
	.st8{fill:url(#SVGID_9_);}
	.st9{fill:url(#SVGID_10_);}
	.st10{fill:#282828;}
	.st11{font-family:'Roboto-Light';}
	.st12{font-size:12.282px;}
	.st13{fill:none;}
	.st14{fill:url(#SVGID_11_);}
	.st15{clip-path:url(#SVGID_13_);}
	.st16{fill:url(#SVGID_14_);}
	.st17{fill:url(#SVGID_15_);}
	.st18{fill:url(#SVGID_16_);}
</style>
<g>
	<linearGradient id="SVGID_1_" gradientUnits="userSpaceOnUse" x1="47.99" y1="53.282" x2="47.99" y2="98.99">
		<stop  offset="0" style="stop-color:#52AFE3"/>
		<stop  offset="0.4449" style="stop-color:#51AEE2"/>
		<stop  offset="0.6051" style="stop-color:#50A9DF"/>
		<stop  offset="0.7193" style="stop-color:#4DA2D9"/>
		<stop  offset="0.8117" style="stop-color:#4997D2"/>
		<stop  offset="0.8907" style="stop-color:#4589C8"/>
		<stop  offset="0.9595" style="stop-color:#3F7ABE"/>
		<stop  offset="1" style="stop-color:#3C6FB6"/>
	</linearGradient>
	<path class="st0" d="M25.7,54c-3.1-1.4-4.5-0.5-5-0.2c0,0,0,0-0.1,0.1c0,0,0,0.1-0.1,0.1c-0.4,0.4-1.2,1.8,0.2,5
		c1.7,3.8,4.4,6.8,6.5,8.3c3.5,2.5,6,0.2,8.4,2.6c3,3,28.6,20.6,32.2,25c3.6,4.4,5.6,4.8,7.2,3.2l0,0c1.6-1.6,1.2-3.6-3.2-7.2
		c-4.4-3.6-32.2-19-35.2-22c-2.4-2.4-0.2-4.9-2.6-8.4C32.6,58.4,29.6,55.8,25.7,54z"/>
	<linearGradient id="SVGID_2_" gradientUnits="userSpaceOnUse" x1="36.5986" y1="51.87" x2="36.5986" y2="99.056">
		<stop  offset="0" style="stop-color:#52AFE3"/>
		<stop  offset="0.4449" style="stop-color:#51AEE2"/>
		<stop  offset="0.6051" style="stop-color:#50A9DF"/>
		<stop  offset="0.7193" style="stop-color:#4DA2D9"/>
		<stop  offset="0.8117" style="stop-color:#4997D2"/>
		<stop  offset="0.8907" style="stop-color:#4589C8"/>
		<stop  offset="0.9595" style="stop-color:#3F7ABE"/>
		<stop  offset="1" style="stop-color:#3C6FB6"/>
	</linearGradient>
	<path class="st1" d="M63.7,56.1l-0.5-0.5l-7.7,7.7c-0.3,0.3-0.8,0.4-1,0.2c-0.2-0.2-0.1-0.7,0.2-1l7.7-7.7L62,54.4l-7.7,7.7
		c-0.3,0.3-0.8,0.4-1,0.2c-0.2-0.2-0.1-0.7,0.2-1l7.7-7.7l-0.5-0.5L53,60.8c-0.3,0.3-0.8,0.4-1,0.2c-0.2-0.2-0.1-0.7,0.2-1l7.7-7.7
		l-0.4-0.4c0,0-9.7,7.9-11.2,10c-2.5,3.5-0.2,4.7-2.6,7.1c-3,3-27.7,18.4-32.1,22c-4.4,3.6-4.8,5.6-3.2,7.2l0,0
		c1.6,1.6,3.6,1.2,7.2-3.2c3.6-4.4,26.1-22,29.1-25c2.4-2.4,3.3-0.1,6.8-2.6C55.5,65.9,63.7,56.1,63.7,56.1z"/>
</g>
<linearGradient id="SVGID_3_" gradientUnits="userSpaceOnUse" x1="12.0417" y1="41.0411" x2="12.0417" y2="98.7684">
	<stop  offset="0" style="stop-color:#52AFE3"/>
	<stop  offset="0.4449" style="stop-color:#51AEE2"/>
	<stop  offset="0.6051" style="stop-color:#50A9DF"/>
	<stop  offset="0.7193" style="stop-color:#4DA2D9"/>
	<stop  offset="0.8117" style="stop-color:#4997D2"/>
	<stop  offset="0.8907" style="stop-color:#4589C8"/>
	<stop  offset="0.9595" style="stop-color:#3F7ABE"/>
	<stop  offset="1" style="stop-color:#3C6FB6"/>
</linearGradient>
<path class="st2" d="M13,98.8h-1.9c-1.1,0-1.9-0.9-1.9-1.9V43c0-1.1,0.9-1.9,1.9-1.9H13c1.1,0,1.9,0.9,1.9,1.9v53.9
	C14.9,97.9,14.1,98.8,13,98.8z"/>
<linearGradient id="SVGID_4_" gradientUnits="userSpaceOnUse" x1="3.7741" y1="29.7032" x2="47.0797" y2="29.7032">
	<stop  offset="0" style="stop-color:#FFC640"/>
	<stop  offset="1" style="stop-color:#F68A43"/>
</linearGradient>
<path class="st3" d="M5.7,50.8l-1.4-1.4c-0.7-0.7-0.7-2,0-2.7L42.4,8.6c0.7-0.7,2-0.7,2.7,0l1.4,1.4c0.7,0.7,0.7,2,0,2.7L8.4,50.8
	C7.7,51.5,6.4,51.5,5.7,50.8z"/>
<linearGradient id="SVGID_5_" gradientUnits="userSpaceOnUse" x1="41.0345" y1="30.2496" x2="82.2182" y2="30.2496">
	<stop  offset="0" style="stop-color:#FFC640"/>
	<stop  offset="1" style="stop-color:#F68A43"/>
</linearGradient>
<path class="st4" d="M81.6,51.1l-1.4,1.3c-0.8,0.7-2,0.6-2.7-0.2L41.5,12.1c-0.7-0.8-0.6-2,0.2-2.7l1.4-1.3c0.8-0.7,2-0.6,2.7,0.2
	l35.9,40.2C82.4,49.2,82.4,50.4,81.6,51.1z"/>
<linearGradient id="SVGID_6_" gradientUnits="userSpaceOnUse" x1="73.9373" y1="41.0411" x2="73.9373" y2="98.7684">
	<stop  offset="0" style="stop-color:#52AFE3"/>
	<stop  offset="0.4449" style="stop-color:#51AEE2"/>
	<stop  offset="0.6051" style="stop-color:#50A9DF"/>
	<stop  offset="0.7193" style="stop-color:#4DA2D9"/>
	<stop  offset="0.8117" style="stop-color:#4997D2"/>
	<stop  offset="0.8907" style="stop-color:#4589C8"/>
	<stop  offset="0.9595" style="stop-color:#3F7ABE"/>
	<stop  offset="1" style="stop-color:#3C6FB6"/>
</linearGradient>
<path class="st5" d="M74.9,98.8H73c-1.1,0-1.9-0.9-1.9-1.9V43c0-1.1,0.9-1.9,1.9-1.9h1.9c1.1,0,1.9,0.9,1.9,1.9v53.9
	C76.8,97.9,76,98.8,74.9,98.8z"/>
<linearGradient id="SVGID_7_" gradientUnits="userSpaceOnUse" x1="36.5986" y1="29.4025" x2="43.1733" y2="29.4025">
	<stop  offset="0" style="stop-color:#52AFE3"/>
	<stop  offset="0.4449" style="stop-color:#51AEE2"/>
	<stop  offset="0.6051" style="stop-color:#50A9DF"/>
	<stop  offset="0.7193" style="stop-color:#4DA2D9"/>
	<stop  offset="0.8117" style="stop-color:#4997D2"/>
	<stop  offset="0.8907" style="stop-color:#4589C8"/>
	<stop  offset="0.9595" style="stop-color:#3F7ABE"/>
	<stop  offset="1" style="stop-color:#3C6FB6"/>
</linearGradient>
<rect x="36.6" y="26.1" class="st6" width="6.6" height="6.6"/>
<linearGradient id="SVGID_8_" gradientUnits="userSpaceOnUse" x1="43.6822" y1="29.4025" x2="50.2569" y2="29.4025">
	<stop  offset="0" style="stop-color:#FFC640"/>
	<stop  offset="1" style="stop-color:#F68A43"/>
</linearGradient>
<rect x="43.7" y="26.1" class="st7" width="6.6" height="6.6"/>
<linearGradient id="SVGID_9_" gradientUnits="userSpaceOnUse" x1="36.5986" y1="36.7537" x2="43.1733" y2="36.7537">
	<stop  offset="0" style="stop-color:#52AFE3"/>
	<stop  offset="0.4449" style="stop-color:#51AEE2"/>
	<stop  offset="0.6051" style="stop-color:#50A9DF"/>
	<stop  offset="0.7193" style="stop-color:#4DA2D9"/>
	<stop  offset="0.8117" style="stop-color:#4997D2"/>
	<stop  offset="0.8907" style="stop-color:#4589C8"/>
	<stop  offset="0.9595" style="stop-color:#3F7ABE"/>
	<stop  offset="1" style="stop-color:#3C6FB6"/>
</linearGradient>
<rect x="36.6" y="33.5" class="st8" width="6.6" height="6.6"/>
<linearGradient id="SVGID_10_" gradientUnits="userSpaceOnUse" x1="43.6822" y1="36.7537" x2="50.2569" y2="36.7537">
	<stop  offset="0" style="stop-color:#FFC640"/>
	<stop  offset="1" style="stop-color:#F68A43"/>
</linearGradient>
<rect x="43.7" y="33.5" class="st9" width="6.6" height="6.6"/>
<text transform="matrix(1 0 0 1 71.0581 112.8428)" class="st10 st11 st12">Indirapuram Kitchen Decor</text>
<path class="st13" d="M227.8,60.8l-0.5,1.9c0.2,0,0.4-0.1,0.6-0.1c1.9-0.5,3.7-1.3,5.6-1.6c0.7-0.1,1.2,0.1,1.6,0.5
	c4.3-1.1,8.5-2.8,12.7-4.3c0.8-0.3,1.5-0.6,2.3-0.8c0.2-0.3,0.5-0.6,0.7-1C242.9,57.7,235.2,59.5,227.8,60.8z"/>
<linearGradient id="SVGID_11_" gradientUnits="userSpaceOnUse" x1="193.633" y1="11.8939" x2="193.633" y2="63.4736">
	<stop  offset="0" style="stop-color:#FBAB2C"/>
	<stop  offset="1" style="stop-color:#F47E52"/>
</linearGradient>
<path class="st14" d="M278.9,40c-0.5-7.6-3-13.8-7.9-18.7c-5.5-5.5-14.4-9.4-28.6-9.4h-25.9l-9.7,36.2c-8.5,0.1-17.3,0-26.3-0.6
	l-0.8-2.2l33.4-33.5h-29.8l-24.4,26.2l7.1-26.2h-24.5l-7.7,28.8c-2.5-0.6-5.1-1.3-7.6-2l7.2-26.8h-24.5l-5.2,19.3
	c-5-2-9.9-4.2-14.7-6.6c0,0,4.7,4.5,13.6,10.5c0.2,0.1,0.4,0.2,0.6,0.4c2.5,1.7,5.4,3.5,8.5,5.3c0.1,0,0.1,0.1,0.2,0.1
	c0.9,0.5,1.8,1,2.6,1.5c2.1,1.2,4.4,2.4,6.8,3.5c0.7,0.3,1.3,0.5,2,0.9c0.3,0.1,0.5,0.3,0.7,0.4c2.3,1.1,4.7,2.1,7.2,3.2
	c15,6.2,33.6,11.5,55.3,12.8c5.2,0.3,10.6,0.4,16.2,0.2c8-0.3,16.4-1.1,25.2-2.6c7.4-1.3,15.1-3.1,23-5.4
	c9.1-2.7,18.4-6.1,28.1-10.4c6.4-2.8,12.9-6,19.5-9.7C298.4,35.3,291.1,37.4,278.9,40z M231.5,46.8l3.6-13.6h4.1
	c5.9,0,9.5,1.4,11.8,3.7c1.7,1.7,2.8,4,3,7.4C247.1,45.3,239.6,46.2,231.5,46.8z"/>
<g>
	<defs>
		<path id="SVGID_12_" d="M272.2,61.5c-6.8,1.4-15.2,3-24.8,4.3c-6.9,1-14.5,1.9-22.5,2.5c-7.9,0.7-16.2,1.1-24.8,1.3
			c-8.5,0.1-17.3,0-26.3-0.6c-15.3-1-31-3.1-46.7-6.8c-2.5-0.6-5.1-1.3-7.6-2c-7.5-2.1-15.1-4.6-22.4-7.6c-5-2-9.9-4.2-14.7-6.6
			c0,0-5,47.7,3.9,53.7c0.2,0.1,0.4,0.2,0.6,0.4c2.5,1.7,15.1,3.5,18.2,5.3c0.1,0,0.1,0.1,0.2,0.1c0.9,0.5,1.8,1,2.6,1.5
			c2.1,1.2,4.4,2.4,6.8,3.5c0.7,0.3,1.3,0.5,2,0.9c0.3,0.1,0.5,0.3,0.7,0.4c2.3,1.1,4.7,2.1,7.2,3.2c15,6.2,33.6,11.5,55.3,12.8
			c5.2,0.3,10.6,0.4,16.2,0.2c8-0.3,16.4-1.1,25.2-2.6c7.4-1.3,15.1-3.1,23-5.4c9.1-2.7,18.4-6.1,28.1-10.4
			c6.4-2.8,12.9-49.3,19.5-52.9C291.7,56.8,284.5,59,272.2,61.5z"/>
	</defs>
	<clipPath id="SVGID_13_">
		<use xlink:href="#SVGID_12_"  style="overflow:visible;"/>
	</clipPath>
	<g class="st15">
		<linearGradient id="SVGID_14_" gradientUnits="userSpaceOnUse" x1="111.3001" y1="25.4257" x2="111.3001" y2="98.6107">
			<stop  offset="0" style="stop-color:#52AFE3"/>
			<stop  offset="0.4449" style="stop-color:#51AEE2"/>
			<stop  offset="0.6051" style="stop-color:#50A9DF"/>
			<stop  offset="0.7193" style="stop-color:#4DA2D9"/>
			<stop  offset="0.8117" style="stop-color:#4997D2"/>
			<stop  offset="0.8907" style="stop-color:#4589C8"/>
			<stop  offset="0.9595" style="stop-color:#3F7ABE"/>
			<stop  offset="1" style="stop-color:#3C6FB6"/>
		</linearGradient>
		<path class="st16" d="M108.9,25.4h24.5l-19.7,73.2H89.2L108.9,25.4z"/>
		<linearGradient id="SVGID_15_" gradientUnits="userSpaceOnUse" x1="167.4438" y1="25.4257" x2="167.4438" y2="98.6107">
			<stop  offset="0" style="stop-color:#52AFE3"/>
			<stop  offset="0.4449" style="stop-color:#51AEE2"/>
			<stop  offset="0.6051" style="stop-color:#50A9DF"/>
			<stop  offset="0.7193" style="stop-color:#4DA2D9"/>
			<stop  offset="0.8117" style="stop-color:#4997D2"/>
			<stop  offset="0.8907" style="stop-color:#4589C8"/>
			<stop  offset="0.9595" style="stop-color:#3F7ABE"/>
			<stop  offset="1" style="stop-color:#3C6FB6"/>
		</linearGradient>
		<path class="st17" d="M141.5,25.4H166l-7.1,26.2l24.4-26.2H213l-33.4,33.5l15.3,39.7h-26l-8.8-23.5l-10.2,10.2l-3.6,13.3h-24.5
			L141.5,25.4z"/>
		<linearGradient id="SVGID_16_" gradientUnits="userSpaceOnUse" x1="238.0155" y1="25.4257" x2="238.0155" y2="98.6107">
			<stop  offset="0" style="stop-color:#52AFE3"/>
			<stop  offset="0.4449" style="stop-color:#51AEE2"/>
			<stop  offset="0.6051" style="stop-color:#50A9DF"/>
			<stop  offset="0.7193" style="stop-color:#4DA2D9"/>
			<stop  offset="0.8117" style="stop-color:#4997D2"/>
			<stop  offset="0.8907" style="stop-color:#4589C8"/>
			<stop  offset="0.9595" style="stop-color:#3F7ABE"/>
			<stop  offset="1" style="stop-color:#3C6FB6"/>
		</linearGradient>
		<path class="st18" d="M216.6,25.4h25.9c14.2,0,23.1,3.9,28.6,9.4c5.4,5.4,7.9,12.5,7.9,21.4c0,11-4.2,21-12,28.9
			c-8.8,8.8-21.4,13.5-38.4,13.5h-31.8L216.6,25.4z M231.4,77.3c7.4,0,13.8-2.2,17.6-6c3-3,5.2-7.9,5.2-12.4c0-4-1.1-6.6-3-8.5
			c-2.3-2.3-6-3.7-11.8-3.7h-4.1l-8.2,30.5H231.4z"/>
	</g>
</g>
</svg>
